# xmcd
#
# Track frame offsets:
#	150
#	35632
#	57326
#	85321
#	104768
#	133758
#	149523
#	171291
#	195028
#	220481
#	236561
#	259398
#	280906
#	302441
#	324053
#
# Disc length: 4734
#
# Revision: 1
# Processed by: cddbd v1.5.1PL0 Copyright (c) Steve Scherf et al.
# Submitted via: CDex 1.50beta8
# Normalized: r0:TDELIM( - )
#
DISCID=df127c0f
DTITLE=Various Artist - Blues Collection 2002
DYEAR=2002
DGENRE=Blues
TTITLE0=Joe Bahamasa - If Heartaches Were Nickels
TTITLE1=Gary Moore - Enough of The Blues
TTITLE2=John Mayall - So Many Roads
TTITLE3=Peter Green Splinter Group - Feeling Good
TTITLE4=Robert Cray Band - Far away
TTITLE5=Bill Wyman - Lonely Blue Boy
TTITLE6=Eric Clapton - Second Nature
TTITLE7=Lucky Peterson - When My Blood Runs Cold
TTITLE8=Buddy Guy - It`s a Jungle out There
TTITLE9=John Hammond - Jockey Full of Bourbon
TTITLE10=Jimmie Vaughan - Dirty Girl
TTITLE11=Dr. John - Holdin` Pattern
TTITLE12=Joe Bahamasa - A New Day Yesterday
TTITLE13=Lucky Peterson - Double Dealing
TTITLE14=Gary Moore - Stormy Monday
EXTD=YEAR: 2002
EXTT0=
EXTT1=
EXTT2=
EXTT3=
EXTT4=
EXTT5=
EXTT6=
EXTT7=
EXTT8=
EXTT9=
EXTT10=
EXTT11=
EXTT12=
EXTT13=
EXTT14=
PLAYORDER=
